<?xml version="1.0" encoding="UTF-8" standalone="no"?>
<!DOCTYPE svg PUBLIC "-//W3C//DTD SVG 20010904//EN"
"http://www.w3.org/TR/2001/REC-SVG-20010904/DTD/svg10.dtd">
<svg xmlns="http://www.w3.org/2000/svg" xmlns:xml="http://www.w3.org/XML/1998/namespace" xml:space="preserve" width="64" height="64" overflow="visible" viewBox="0 0 256 256">
  <g stroke="#000">
    <path fill="none" stroke="none" d="M256 256H0V0h256v256z" opacity=".2"/>
    <radialGradient id="a" cx="116.8169" cy="47.0796" r="182.3371" fx="116.8169" fy="47.0796" gradientUnits="userSpaceOnUse">
      <stop offset="0" stop-color="#fff"/>
      <stop offset=".5955" stop-color="#9cf"/>
      <stop offset=".9944" stop-color="#39f"/>
    </radialGradient>
    <path fill="url(#a)" stroke="none" d="M126.148 237.98c61.959 0 112.223-50.473 112.223-112.395 0-61.528-50.262-112.01-112.223-112.01-61.52.003-112.213 50.482-112.213 112.01.001 61.923 50.694 112.395 112.213 112.395z"/>
    <path stroke="none" d="M212.02 53.625c16.439 19.511 26.352 44.645 26.352 71.961 0 61.922-50.264 112.395-112.223 112.395-27.129 0-52.15-9.819-71.649-26.104 20.659 24.496 51.51 40.104 85.714 40.104 61.959 0 112.223-50.473 112.223-112.395-.001-34.409-15.724-65.359-40.417-85.961z" opacity=".2"/>
    <path fill="#036" stroke="none" d="M126.148 7C60.647 7.003 7.359 60.201 7.359 125.586c0 65.6 53.288 118.971 118.789 118.971 65.506 0 118.799-53.371 118.799-118.971C244.947 60.197 191.654 7 126.148 7zm0 230.98c-61.52 0-112.213-50.473-112.213-112.395 0-61.528 50.693-112.007 112.213-112.01 61.961 0 112.223 50.482 112.223 112.01 0 61.923-50.264 112.395-112.223 112.395z"/>
    <linearGradient id="b" x1="125.8564" x2="125.8564" y1="56.8018" y2="245.8628" gradientUnits="userSpaceOnUse">
      <stop offset="0" stop-color="#06c"/>
      <stop offset=".9944" stop-color="#036"/>
    </linearGradient>
    <path fill="url(#b)" stroke="none" d="M88.875 25.919c-.555 0-1.162.229-1.785.581 1.46-.429 2.147-.581 1.785-.581zm36.13 7.05.364-5.285-5.579.351.738 4.935h4.477zm-62.949 91.345c-1.121-1.06-.371-5.646-.371-5.646s-16.764-8.811-35.015-14.105c-2.251-.653-1.114-5.287 1.112-7.045l-.743-4.953c-.369-2.459 3.728-14.449 7.825-15.502 4.099-1.064-.372 7.048-.372 7.048l-4.097 2.469s4.839 5.638 5.962 5.638c1.114 0 2.977-2.822 2.977-2.822l-5.213-3.516 4.844-2.123.303-1.859.813-.257 8.016-12.143c5.541-2.267 12.349-5.076 13.216-5.491 1.49-.701 11.919-6.69 13.781-8.104 1.867-1.416 5.957-1.057 7.443-1.057 1.497 0 3.731-.708 4.101-4.593.372-3.878 1.865-4.584 2.984-3.523 1.116 1.053-1.122 2.818 1.488 3.523 2.607.709 4.837 2.472 6.704.709 1.362-1.293-.46-2.763-1.688-3.874h20.681l2.24-6.358-4.842-.704-17.886-1.762v-2.117l-1.426.241c1.937-10.639 13.438-8.886 4.781-15.045-.526-.378-8.101 11.936-10.028 11.696-3.492-.46-8.004-.496-8.968.638-1.269 1.499 2.857-5.158 6.412-7.177-5.672 1.672-23.594 7.803-42.542 27.986-18.112 19.294-25.334 45.287-25.334 46.197 0 1.761 3.728 2.469 4.101 4.587.373 2.106-7.074 9.167-7.074 12.693 0 1.625-1.758 23.361 4.463 41.267 7.269 20.896 22.783 38.348 24.587 39.496l3.721-1.77s-8.566-15.16-8.938-16.576c-.369-1.404 9.684-21.861 14.529-21.15 4.839.693 3.725 2.115 6.705.35 2.978-1.76 4.84-16.229 8.192-17.629 3.355-1.418 7.077-3.178 6.711-6.703-.379-3.535-13.041-9.877-14.159-10.934h.004zm80.828-103.685-10.056-3.53 1.863 5.648 8.193-2.118zm-37.623 13.049c1.121 0 23.469-14.806 21.232-15.164-2.23-.35-2.606 0-8.573-.705-5.955-.707-12.294 8.465-13.778 9.877-1.486 1.415-.985 5.992 1.119 5.992zm102.555 106.334 2.885-3.742-2.885-1.016-2.163 2.721-2.521 3.73 2.162 1.023 2.522-2.716zm12.614 12.244-.722-5.441h-4.677l-.363 4.074-4.333-.672-1.075-4.424-2.161-1.357-2.53 3.055-2.516-.676-.726 2.371 2.887.691v22.088l10.202 2.455c-.234.408-.411.752-.471.938-.727 2.383 2.881 3.41 5.399 2.383.942-.375 3.908-3.375 5.771-7.809 2.598-6.178 4.866-14.334 5.322-17.217l1.169-2.496-7.212 2.715-3.967-.674.003-.004zm15.144-41.132-1.882-3.645c-2.229-12.572-7.343-28.67-18.3-45.3-16.493-25.001-62.38-39.422-62.38-39.422l-2.518 3.052-1.445-2.372-3.607-1.365v3.059l3.25 2.725-2.164 1.018-8.294.676-18.746 10.201 1.797 8.155-2.166.686-1.072 1.695 6.126 9.172.361 3.065-5.046 1.018v6.114l-2.882.679.363 4.761-24.521 17 .723 9.507c1.798 2.383 15.865 16.662 15.865 16.662s16.218.671 19.826-1.361c3.605-2.039 1.08 2.036 2.164 3.057 1.08 1.027 1.441 8.156 2.52 8.839 1.08.678 0 4.753 1.443 6.12 1.441 1.35 1.441 17.676 1.441 17.676s8.653 14.607 8.653 18.352c0 3.736-.361 3.396 6.492 3.059 6.85-.34 8.289-3.059 9.728-4.074 1.448-1.023 1.448-3.404 2.892-5.445 1.445-2.043 3.959-9.855 7.21-12.57 3.241-2.727 11.895-4.768 12.612-9.52.721-4.76 3.966-8.502 3.966-8.502l15.587-16.487-.438 2.217-.363 8.488 4.688-1.695-.357-9.183-1.686-1.779.24-.259s-1.085-2.036-2.521-2.036c-1.442 0-10.101 2.036-11.537 1.699-1.445-.342-7.578-16.658-8.658-17.331-1.082-.681-7.928-11.899-7.928-11.899s15.86 19.036 18.384 26.509c1.464 4.354 6.966.302 11.443-4.243l1.184 2.888 2.88-.687-.361-3.397h3.243v5.099l-1.08 2.72-.371 4.415 2.889 2.726 1.446-2.376 4.677-4.423 5.413-2.721 1.443 2.721.723 3.741-1.448 4.076-2.88 2.379-1.443 6.12v3.051l-3.24-2.035-.361-6.455-4.686.344-2.161 5.77 3.244 4.769 7.568 1.018 6.133-5.786.718-11.206 2.726-3.601c1.777 4.566 3.046 9.345 3.046 13.795 0 4.88 2.23-3.381.332-18.264l1.106-1.453v-.001zm-90.852-34.668-19.466-.69 8.285-6.793h4.33l6.85 4.754v2.728l.001.001zm23.799-2.378v3.059h-8.291l.72 2.042-5.051.684-.358 1.693-3.604-.674-6.492-1.368 1.084-1.694 1.083-2.048 3.603-3.734 1.445 2.721 5.41-.342 2.881-3.061 11.172 2.04-3.601.686v-.004zm.714-4.424-4.321.679-.72-3.063 5.4-.677.726-3.057 3.973 4.084-5.058 2.029v.005zm20.914 105.701-2.526 2.039.359 5.105h3.246v-4.412l2.889-3.748v-7.814l-1.805-.35-2.159 9.18h-.004zM166 165.17s-2.525.664.355 1.691c2.88 1.025 14.42-16.645 14.42-16.645l-9.735 6.109-5.044 8.844H166zm-19.626 65.143-2.156-2.055-4.328-.689-.718 2.057-5.766-.678-.362-2.738h-4.324l-4.685 2.738h-8.286l-.719-2.057-13.33-1.375-2.166 2.053-5.401-1.359-.721-4.801-2.522-.35-2.883 5.15-9.726-.346c1.737.824 16.267 9.488 38.545 11.301 29.547 2.389 43.601-4.793 43.601-4.793l-1.082-1.031-12.972-1.023v-.004z"/>
    <linearGradient id="c" x1="125.6948" x2="125.6948" y1="14.7065" y2="192.6113" gradientUnits="userSpaceOnUse">
      <stop offset="0" stop-color="#fff"/>
      <stop offset=".9944" stop-color="#74b2ff"/>
    </linearGradient>
    <path fill="url(#c)" stroke="none" d="M125.77 103.102c38.438 0 71.876-13.245 89.079-32.765-17.323-33.064-50.796-55.63-89.243-55.63-38.111.002-71.629 22.492-89.064 55.463 17.159 19.612 50.68 32.932 89.228 32.932z" opacity=".5"/>
    <g stroke="none">
      <path fill="#900" d="M151.926 141.354C143.477 169.383 115.082 190 81.333 190c-30.502 0-56.635-16.841-67.62-40.773-.126 1.248-.213 2.502-.213 3.773 0 29.641 34.996 53.667 78.167 53.667s78.166-24.026 78.166-53.667c0-.626-.024-1.247-.056-1.868-5.64-3.881-11.478-7.48-17.851-9.778z"/>
      <path fill="red" d="M81.333 192c-27.496 0-52.321-13.418-65.515-34.734 3.215 26.498 35.972 47.401 75.848 47.401 41.999 0 76.167-23.178 76.167-51.667 0 0-.013-.395-.022-.777-4.283-2.916-9.264-5.983-14.703-8.205C143.461 172.363 114.325 192 81.333 192z"/>
      <path fill="#F93" d="M138.904 169.794c-21.7 28.722-74.297 22.619-74.826 22.554l-.755 3.92c61.131 16.123 83.836-12.819 84.772-14.062l.813-1.077-8.219-13.697-1.785 2.362z"/>
      <path fill="#FF0" d="M63.833 194.333S117.833 201 140.5 171l6 10s-22 29.333-82.667 13.333z"/>
    </g>
    <path stroke="none" d="M238.841 97.574c-9.782-9.786-27.952-6.247-43.229 8.404-.063.058-.359.337-.359.337l-3.607 3.604c-8.201.056-19.131 6.726-28.459 15.216-17.465.442-38.992 1.32-49 3.034l-1.121.19-20.746 14.363 47.037 22.916c-.453 1.578-.698 3.211-.698 4.851v.009c.003 4.374 1.649 8.426 4.633 11.406l11.245 11.244c2.98 2.988 7.035 4.631 11.412 4.631 2.543-.004 5.072-.584 7.42-1.641L216.357 256l11.836-25.402v-1.139c0-16.342-6.1-57.427-9.187-77.188l11.12-11.125.277-.289c14.687-15.273 18.243-33.484 8.438-43.283z" opacity=".2"/>
    <linearGradient id="d" x1="106.9346" x2="142.9346" y1="169.7129" y2="119.7129" gradientUnits="userSpaceOnUse">
      <stop offset="0" stop-color="#222"/>
      <stop offset=".9944" stop-color="#777"/>
    </linearGradient>
    <path fill="url(#d)" stroke="none" d="M180.16 116.117c-2.327.017-57.186.406-75.108 3.475l-1.118.191-20.75 14.363 69.172 33.696 2.574-2.319c3.021-2.721 29.545-27.078 30.391-44.016l.271-5.427-5.432.037z"/>
    <linearGradient id="e" x1="-47.3789" x2="-19.5472" y1="392.8857" y2="438.9825" gradientTransform="matrix(1 0 0 -1 168.5 548.5)" gradientUnits="userSpaceOnUse">
      <stop offset="0" stop-color="#ccc"/>
      <stop offset=".7697" stop-color="#fff"/>
      <stop offset="1" stop-color="#fff"/>
    </linearGradient>
    <path fill="url(#e)" stroke="none" d="M151.493 161.712s27.937-25.167 28.7-40.46c0 0-56.561.367-74.276 3.398l-12.599 8.722 58.175 28.34z"/>
    <path stroke="none" d="m103.066 138.121 48.427 23.591s7.512-6.771 14.853-15.423c-14.761-10.519-35.151-15.086-63.28-8.168z" opacity=".5"/>
    <path fill="#333" stroke="none" d="M229.708 88.999c-9.784-9.789-27.952-6.251-43.229 8.404-.062.056-.361.333-.361.333l-3.604 3.607c-9.209.063-21.865 8.454-31.818 18.408-10.235 10.235-18.811 23.32-18.383 32.583-1.789 2.909-2.785 6.232-2.785 9.58v.004c0 4.379 1.646 8.43 4.63 11.408l11.247 11.247c2.979 2.983 7.035 4.629 11.412 4.627 4.814-.001 9.607-2.034 13.145-5.58L221 132.566l.274-.289c14.686-15.274 18.242-33.483 8.434-43.278z"/>
    <linearGradient id="f" x1="13.4653" x2="19.6261" y1="417.4092" y2="399.9536" gradientTransform="matrix(1 0 0 -1 168.5 548.5)" gradientUnits="userSpaceOnUse">
      <stop offset="0" stop-color="red"/>
      <stop offset="1" stop-color="#c00"/>
    </linearGradient>
    <path fill="url(#f)" stroke="none" d="m189.973 101.161.035-.033-.328.306-50.955 50.964c-5.029 5.027-5.451 12.791-.94 17.293l11.249 11.25c4.509 4.514 12.267 4.088 17.293-.948l50.954-50.962.274-.292c12.478-12.976 16.146-28.499 8.525-36.111-7.611-7.616-23.135-3.944-36.107 8.533z"/>
    <linearGradient id="g" x1="180.5107" x2="224.5107" y1="208.5107" y2="164.5107" gradientUnits="userSpaceOnUse">
      <stop offset="0" stop-color="#222"/>
      <stop offset=".9944" stop-color="#777"/>
    </linearGradient>
    <path fill="url(#g)" stroke="none" d="M201.955 128.655c-19.189 4.28-42.092 39.743-44.637 43.774l-1.852 2.928 51.76 72.063 11.836-25.401v-1.138c0-21.422-10.478-85.341-10.924-88.054l-.88-5.359-5.303 1.187z"/>
    <linearGradient id="h" x1="22.5854" x2="-2.0561" y1="407.6953" y2="432.3373" gradientTransform="matrix(1 0 0 -1 168.5 548.5)" gradientUnits="userSpaceOnUse">
      <stop offset="0" stop-color="#fff"/>
      <stop offset="1" stop-color="#ccdeed"/>
    </linearGradient>
    <path fill="url(#h)" stroke="none" d="M222.675 90.205c-8.263-4.066-21.442.124-32.702 10.956l.035-.033-.328.306-50.955 50.964c-5.029 5.027-5.451 12.791-.94 17.293l10.073 10.076c4.463 2.08 10.268 1.017 14.309-3.033l50.952-50.963.274-.287c12.039-12.525 15.873-27.415 9.282-35.279z"/>
    <path fill="#FFF" stroke="none" d="M152.741 138.379c22.013-8.463 42.392-17.707 49.901-25.215 7.287-7.292 10.065-16.159 10.722-24.358-7.267.744-15.767 5.018-23.394 12.355l.036-.033-.329.306-36.936 36.945z"/>
    <path fill="#C30" stroke="none" d="M154.324 123.381c-13.207 13.207-20.127 27.703-15.453 32.376 4.675 4.675 19.17-2.245 32.377-15.45 13.21-13.207 20.128-27.705 15.453-32.379-4.672-4.673-19.169 2.244-32.377 15.453z"/>
    <linearGradient id="i" x1="-14.8052" x2="16.8544" y1="424.0391" y2="392.379" gradientTransform="matrix(1 0 0 -1 168.5 548.5)" gradientUnits="userSpaceOnUse">
      <stop offset=".0056" stop-color="#fff"/>
      <stop offset=".309" stop-color="#9cf"/>
      <stop offset="1" stop-color="#39f"/>
    </linearGradient>
    <path fill="url(#i)" stroke="none" d="M167.145 139.62c13.209-13.206 20.125-27.701 15.451-32.376-.289-.29-.615-.532-.979-.735-6.66.545-17.342 6.923-27.293 16.872-13.207 13.207-20.127 27.703-15.453 32.376.29.29.617.536.979.737 6.662-.543 17.341-6.921 27.295-16.874z"/>
    <path fill="#999" stroke="none" d="M208.311 130.633c-17.07-1.021-53.832 39.29-49.33 49.453.537-.409 1.06-.855 1.552-1.35l48.129-48.168c-.118.022-.234.036-.351.065z"/>
    <linearGradient id="j" x1="12.356" x2="52.0588" y1="352.2432" y2="370.3824" gradientTransform="matrix(1 0 0 -1 168.5 548.5)" gradientUnits="userSpaceOnUse">
      <stop offset="0" stop-color="#ccc"/>
      <stop offset=".2966" stop-color="#d0d0d0"/>
      <stop offset=".5627" stop-color="#dadada"/>
      <stop offset=".8163" stop-color="#ededed"/>
      <stop offset=".8415" stop-color="#f6f6f6"/>
      <stop offset=".8834" stop-color="#fdfdfd"/>
      <stop offset="1" stop-color="#fff"/>
    </linearGradient>
    <path fill="url(#j)" stroke="none" d="M161.659 175.173s23.749-37.567 41.416-41.508c0 0 10.853 65.97 10.853 87.218l-7.65 16.417-44.619-62.127z"/>
    <path fill="#FFF" stroke="none" d="M162.18 144.24c1.658-1.438 3.32-2.979 4.965-4.62 1.457-1.457 2.832-2.929 4.129-4.399-15.176 5.168-27.157 6.689-27.157 6.689l-1.111 6.464c5.648-2.169 12.885-3.42 19.174-4.134z" opacity=".5"/>
    <path fill="red" stroke="none" d="M153.678 150.684c-3.693-5.76-8.172-10.058-11.205-12.602-2.396 3.881-4.008 7.486-4.688 10.508l-.173 1.881 3.777 5.799c3.437-.661 7.703-2.604 12.289-5.586z"/>
    <path fill="#C00" stroke="none" d="M141.383 141.02c-.037-.031-.078-.06-.115-.093-3.586 6.688-4.539 12.255-1.961 14.832.289.288.617.534.979.735 2.71-.221 6.09-1.419 9.809-3.42-1.079-3.804-4.167-8.269-8.712-12.054z"/>
    <path stroke="none" d="M176.357 155.16c-8.459 10.146-14.698 20.013-14.698 20.013l42.774 59.562c-1.556-21.221-7.344-57.071-28.076-79.575z" opacity=".5"/>
    <path fill="#FFF" stroke="none" d="M182.596 107.244c-.289-.29-.615-.532-.979-.735-4.569.373-11.027 3.491-17.85 8.626 13.758-6.767 16.532-2.091 4.307 4.189-12.664 6.504-10.953 14.376.343 4.79 6.485-5.503 11.502-7.056 14.599-7.378 1.459-4.241 1.429-7.641-.42-9.492z" opacity=".6"/>
  </g>
</svg>